<svg width="28" height="28" viewBox="0 0 28 28" fill="none" xmlns="http://www.w3.org/2000/svg">
<circle cx="14" cy="14" r="14" fill="#292930"/>
<path fill-rule="evenodd" clip-rule="evenodd" d="M12.4516 8.0048C12.4003 7.84824 12.241 7.75381 12.0791 7.78388L10.4174 8.09234C10.4096 8.09379 10.4019 8.09553 10.3942 8.09754C9.52947 8.32395 8.85157 8.99394 8.61406 9.8553L7.78972 12.848C7.74264 13.0189 7.83947 13.1963 8.00865 13.2492L9.87044 13.8314L10.0671 19.3446C10.0734 19.5204 10.2169 19.6601 10.3927 19.6618L13.9398 19.6952L13.9408 19.6952L17.4815 19.7178C17.657 19.7189 17.8024 19.5821 17.812 19.4069L18.1129 13.8983L19.9855 13.3515C20.1557 13.3018 20.2558 13.1262 20.212 12.9544L19.4437 9.94647C19.2229 9.08085 18.5573 8.3983 17.6974 8.15549C17.6882 8.15289 17.6789 8.15069 17.6695 8.14891L15.9623 7.82428C15.9438 7.81767 15.9245 7.81265 15.9046 7.80937C15.7456 7.78328 15.5912 7.87615 15.5397 8.02879C15.244 8.90511 14.6293 9.42058 14.0001 9.42058C13.3647 9.42058 12.7435 8.89521 12.4516 8.0048Z" fill="white"/>
</svg>
