<svg width="28" height="28" viewBox="0 0 28 28" fill="none" xmlns="http://www.w3.org/2000/svg">
<circle cx="14" cy="14" r="14" fill="#292930"/>
<path fill-rule="evenodd" clip-rule="evenodd" d="M19.0385 10.4412L19.0385 10.4411C19.0118 10.403 18.8496 10.2459 18.3454 10.2334C17.8593 10.2213 17.1472 10.3528 16.2146 10.7638L15.9432 10.1479C17.9288 9.27286 19.1926 9.48752 19.5899 10.0552C20.3471 11.1369 18.5228 13.8393 15.4353 16.0012C12.3482 18.1627 9.16721 18.9649 8.40998 17.8837C8.00408 17.3039 8.28691 16.0012 9.64981 14.6407L10.1253 15.117C9.49954 15.7418 9.1547 16.3213 9.00482 16.7688C8.84638 17.2418 8.93372 17.458 8.96131 17.4976M8.96137 17.4977C8.99157 17.5407 9.103 17.646 9.45674 17.6796C9.80275 17.7125 10.2833 17.6639 10.8777 17.5076C12.0607 17.1964 13.5559 16.4955 15.0492 15.4499C16.5428 14.404 17.7083 13.242 18.4007 12.2404C18.7486 11.7371 18.9564 11.304 19.0424 10.9692C19.1302 10.6272 19.0697 10.4858 19.0385 10.4412" fill="white"/>
<mask id="path-4-inside-1" fill="white">
<path fill-rule="evenodd" clip-rule="evenodd" d="M18.8852 12.6286C18.7022 12.0245 18.4073 11.4383 17.9972 10.9022C16.2651 8.63811 13.1338 8.12402 11.0032 9.75395C8.87261 11.3839 8.54952 14.5406 10.2816 16.8047C10.5971 17.2171 10.959 17.5715 11.3529 17.8654C12.59 17.4622 14.0694 16.732 15.5168 15.7186C16.9246 14.7328 18.0881 13.6289 18.8852 12.6286ZM19.1078 13.9584C18.3567 14.9357 17.3705 15.9034 16.194 16.7272C14.9836 17.5747 13.7018 18.1667 12.5005 18.5175C14.0745 19.1667 15.8874 19.0149 17.2755 17.953C18.5359 16.9888 19.1638 15.4903 19.1078 13.9584Z"/>
</mask>
<path fill-rule="evenodd" clip-rule="evenodd" d="M18.8852 12.6286C18.7022 12.0245 18.4073 11.4383 17.9972 10.9022C16.2651 8.63811 13.1338 8.12402 11.0032 9.75395C8.87261 11.3839 8.54952 14.5406 10.2816 16.8047C10.5971 17.2171 10.959 17.5715 11.3529 17.8654C12.59 17.4622 14.0694 16.732 15.5168 15.7186C16.9246 14.7328 18.0881 13.6289 18.8852 12.6286ZM19.1078 13.9584C18.3567 14.9357 17.3705 15.9034 16.194 16.7272C14.9836 17.5747 13.7018 18.1667 12.5005 18.5175C14.0745 19.1667 15.8874 19.0149 17.2755 17.953C18.5359 16.9888 19.1638 15.4903 19.1078 13.9584Z" fill="white"/>
<path d="M17.9972 10.9022L20.5072 8.98201L20.5072 8.982L17.9972 10.9022ZM18.8852 12.6286L21.3568 14.5981L22.3907 13.3006L21.9098 11.7126L18.8852 12.6286ZM11.0032 9.75395L12.9234 12.264L11.0032 9.75395ZM10.2816 16.8047L7.77152 18.7249L7.77152 18.7249L10.2816 16.8047ZM11.3529 17.8654L9.4628 20.3982L10.7752 21.3776L12.3322 20.8701L11.3529 17.8654ZM15.5168 15.7186L17.3294 18.3074L17.3295 18.3073L15.5168 15.7186ZM19.1078 13.9584L22.266 13.8431L21.9461 5.07896L16.602 12.0326L19.1078 13.9584ZM16.194 16.7272L18.0066 19.316L18.0067 19.316L16.194 16.7272ZM12.5005 18.5175L11.6148 15.4838L2.97437 18.0064L11.2953 21.4389L12.5005 18.5175ZM17.2755 17.953L19.1957 20.463L19.1957 20.463L17.2755 17.953ZM15.4871 12.8224C15.665 13.0549 15.7866 13.3004 15.8605 13.5447L21.9098 11.7126C21.6179 10.7487 21.1497 9.82181 20.5072 8.98201L15.4871 12.8224ZM12.9234 12.264C13.5262 11.8028 14.704 11.7987 15.4871 12.8224L20.5072 8.982C17.8263 5.47753 12.7414 4.44521 9.08301 7.2439L12.9234 12.264ZM12.7916 14.8845C12.0085 13.8608 12.3206 12.7252 12.9234 12.264L9.08301 7.2439C5.42463 10.0426 5.09057 15.2204 7.77152 18.7249L12.7916 14.8845ZM13.2429 15.3326C13.0816 15.2122 12.9287 15.0637 12.7916 14.8845L7.77152 18.7249C8.26546 19.3706 8.83638 19.9308 9.4628 20.3982L13.2429 15.3326ZM12.3322 20.8701C13.8996 20.3592 15.6569 19.4784 17.3294 18.3074L13.7041 13.1298C12.482 13.9855 11.2804 14.5651 10.3735 14.8607L12.3322 20.8701ZM17.3295 18.3073C18.9577 17.1672 20.3508 15.8605 21.3568 14.5981L16.4136 10.6592C15.8254 11.3973 14.8915 12.2983 13.7041 13.1298L17.3295 18.3073ZM16.602 12.0326C16.0449 12.7576 15.2917 13.501 14.3813 14.1385L18.0067 19.316C19.4493 18.3058 20.6685 17.1139 21.6136 15.8841L16.602 12.0326ZM14.3814 14.1384C13.4567 14.7858 12.4886 15.2287 11.6148 15.4838L13.3862 21.5511C14.9151 21.1048 16.5105 20.3635 18.0066 19.316L14.3814 14.1384ZM15.3553 15.4429C14.9468 15.7554 14.3424 15.8586 13.7057 15.596L11.2953 21.4389C13.8065 22.4749 16.828 22.2744 19.1957 20.463L15.3553 15.4429ZM15.9496 14.0737C15.9716 14.676 15.7295 15.1567 15.3553 15.4429L19.1957 20.463C21.3423 18.8209 22.3559 16.3046 22.266 13.8431L15.9496 14.0737Z" fill="white" mask="url(#path-4-inside-1)"/>
</svg>
