<svg width="28" height="28" viewBox="0 0 28 28" fill="none" xmlns="http://www.w3.org/2000/svg">
<circle cx="14" cy="14" r="14" fill="#292930"/>
<ellipse cx="14" cy="13.9922" rx="1.34815" ry="1.34815" fill="white"/>
<path fill-rule="evenodd" clip-rule="evenodd" d="M16.1595 16.4837C17.5347 15.1085 17.5347 12.8788 16.1595 11.5036C16.0018 11.3459 16.0018 11.0902 16.1595 10.9325C16.3172 10.7748 16.5729 10.7748 16.7306 10.9325C18.4212 12.6231 18.4212 15.3642 16.7306 17.0548C16.5729 17.2125 16.3172 17.2125 16.1595 17.0548C16.0018 16.8971 16.0018 16.6414 16.1595 16.4837Z" fill="white"/>
<path fill-rule="evenodd" clip-rule="evenodd" d="M18.103 18.4266C20.5513 15.9783 20.5513 12.009 18.103 9.56071C17.9453 9.403 17.9453 9.1473 18.103 8.98959C18.2608 8.83188 18.5165 8.83188 18.6742 8.98959C21.4378 11.7533 21.4378 16.234 18.6742 18.9977C18.5165 19.1554 18.2607 19.1554 18.103 18.9977C17.9453 18.84 17.9453 18.5843 18.103 18.4266Z" fill="white"/>
<path fill-rule="evenodd" clip-rule="evenodd" d="M11.8542 11.5036C10.479 12.8788 10.479 15.1085 11.8542 16.4837C12.0119 16.6414 12.0119 16.8971 11.8542 17.0548C11.6965 17.2125 11.4408 17.2125 11.2831 17.0548C9.59245 15.3642 9.59245 12.6231 11.2831 10.9325C11.4408 10.7748 11.6965 10.7748 11.8542 10.9325C12.0119 11.0902 12.0119 11.3459 11.8542 11.5036Z" fill="white"/>
<path fill-rule="evenodd" clip-rule="evenodd" d="M9.91064 9.56072C7.46239 12.009 7.46239 15.9783 9.91063 18.4266C10.0683 18.5843 10.0683 18.84 9.91063 18.9977C9.75292 19.1554 9.49722 19.1554 9.33951 18.9977C6.57584 16.234 6.57584 11.7533 9.33951 8.98959C9.49722 8.83188 9.75292 8.83188 9.91064 8.98959C10.0683 9.1473 10.0683 9.40301 9.91064 9.56072Z" fill="white"/>
</svg>
